<svg aria-roledescription="er" role="graphics-document document" viewBox="0 0 1174.952392578125 459" style="max-width: 1174.95px; background-color: white;" xmlns:xlink="http://www.w3.org/1999/xlink" xmlns="http://www.w3.org/2000/svg" width="100%" id="my-svg"><style>#my-svg{font-family:"trebuchet ms",verdana,arial,sans-serif;font-size:16px;fill:#000000;}#my-svg .error-icon{fill:#552222;}#my-svg .error-text{fill:#552222;stroke:#552222;}#my-svg .edge-thickness-normal{stroke-width:1px;}#my-svg .edge-thickness-thick{stroke-width:3.5px;}#my-svg .edge-pattern-solid{stroke-dasharray:0;}#my-svg .edge-thickness-invisible{stroke-width:0;fill:none;}#my-svg .edge-pattern-dashed{stroke-dasharray:3;}#my-svg .edge-pattern-dotted{stroke-dasharray:2;}#my-svg .marker{fill:#000000;stroke:#000000;}#my-svg .marker.cross{stroke:#000000;}#my-svg svg{font-family:"trebuchet ms",verdana,arial,sans-serif;font-size:16px;}#my-svg p{margin:0;}#my-svg .entityBox{fill:#cde498;stroke:#13540c;}#my-svg .attributeBoxOdd{fill:#ffffff;stroke:#13540c;}#my-svg .attributeBoxEven{fill:#f2f2f2;stroke:#13540c;}#my-svg .relationshipLabelBox{fill:hsl(78.1578947368, 58.4615384615%, 84.5098039216%);opacity:0.7;background-color:hsl(78.1578947368, 58.4615384615%, 84.5098039216%);}#my-svg .relationshipLabelBox rect{opacity:0.5;}#my-svg .relationshipLine{stroke:#000000;}#my-svg .entityTitleText{text-anchor:middle;font-size:18px;fill:#000000;}#my-svg #MD_PARENT_START{fill:#f5f5f5!important;stroke:#000000!important;stroke-width:1;}#my-svg #MD_PARENT_END{fill:#f5f5f5!important;stroke:#000000!important;stroke-width:1;}#my-svg :root{--mermaid-font-family:"trebuchet ms",verdana,arial,sans-serif;}</style><g/><defs><marker orient="auto" markerHeight="240" markerWidth="190" refY="7" refX="0" id="MD_PARENT_START"><path d="M 18,7 L9,13 L1,7 L9,1 Z"/></marker></defs><defs><marker orient="auto" markerHeight="28" markerWidth="20" refY="7" refX="19" id="MD_PARENT_END"><path d="M 18,7 L9,13 L1,7 L9,1 Z"/></marker></defs><defs><marker orient="auto" markerHeight="18" markerWidth="18" refY="9" refX="0" id="ONLY_ONE_START"><path d="M9,0 L9,18 M15,0 L15,18" fill="none" stroke="gray"/></marker></defs><defs><marker orient="auto" markerHeight="18" markerWidth="18" refY="9" refX="18" id="ONLY_ONE_END"><path d="M3,0 L3,18 M9,0 L9,18" fill="none" stroke="gray"/></marker></defs><defs><marker orient="auto" markerHeight="18" markerWidth="30" refY="9" refX="0" id="ZERO_OR_ONE_START"><circle r="6" cy="9" cx="21" fill="white" stroke="gray"/><path d="M9,0 L9,18" fill="none" stroke="gray"/></marker></defs><defs><marker orient="auto" markerHeight="18" markerWidth="30" refY="9" refX="30" id="ZERO_OR_ONE_END"><circle r="6" cy="9" cx="9" fill="white" stroke="gray"/><path d="M21,0 L21,18" fill="none" stroke="gray"/></marker></defs><defs><marker orient="auto" markerHeight="36" markerWidth="45" refY="18" refX="18" id="ONE_OR_MORE_START"><path d="M0,18 Q 18,0 36,18 Q 18,36 0,18 M42,9 L42,27" fill="none" stroke="gray"/></marker></defs><defs><marker orient="auto" markerHeight="36" markerWidth="45" refY="18" refX="27" id="ONE_OR_MORE_END"><path d="M3,9 L3,27 M9,18 Q27,0 45,18 Q27,36 9,18" fill="none" stroke="gray"/></marker></defs><defs><marker orient="auto" markerHeight="36" markerWidth="57" refY="18" refX="18" id="ZERO_OR_MORE_START"><circle r="6" cy="18" cx="48" fill="white" stroke="gray"/><path d="M0,18 Q18,0 36,18 Q18,36 0,18" fill="none" stroke="gray"/></marker></defs><defs><marker orient="auto" markerHeight="36" markerWidth="57" refY="18" refX="39" id="ZERO_OR_MORE_END"><circle r="6" cy="18" cx="9" fill="white" stroke="gray"/><path d="M21,18 Q39,0 57,18 Q39,36 21,18" fill="none" stroke="gray"/></marker></defs><path style="stroke: gray; fill: none;" marker-start="url(#ZERO_OR_ONE_START)" marker-end="url(#ONLY_ONE_END)" d="M813.169,200.671L773.696,219.559C734.223,238.447,655.276,276.224,615.803,303.445C576.329,330.667,576.329,347.333,576.329,355.667L576.329,364" class="er relationshipLine"/><path style="stroke: gray; fill: none;" marker-start="url(#ZERO_OR_ONE_START)" marker-end="url(#ONLY_ONE_END)" d="M843.609,264L837.313,272.333C831.017,280.667,818.424,297.333,812.128,314C805.832,330.667,805.832,347.333,805.832,355.667L805.832,364" class="er relationshipLine"/><path style="stroke: gray; fill: none;" marker-start="url(#ZERO_OR_ONE_START)" marker-end="url(#ONLY_ONE_END)" d="M1027.957,264L1034.253,272.333C1040.549,280.667,1053.142,297.333,1059.438,314C1065.734,330.667,1065.734,347.333,1065.734,355.667L1065.734,364" class="er relationshipLine"/><g transform="translate(20,97 )" id="entity-transactiontype-bbfbd378-4c76-5146-bc3e-0107cc2f9fea"><rect height="90" width="133.68112182617188" y="0" x="0" class="er entityBox"/><text style="dominant-baseline: middle; text-anchor: middle; font-size: 12px;" transform="translate(66.84056091308594,12)" y="0" x="0" id="text-entity-transactiontype-bbfbd378-4c76-5146-bc3e-0107cc2f9fea" class="er entityLabel">transactiontype</text><rect height="22" width="66.84056091308594" y="24" x="0" class="er attributeBoxOdd"/><text style="dominant-baseline: middle; font-size: 10.2px;" transform="translate(5,35)" y="0" x="0" id="text-entity-transactiontype-bbfbd378-4c76-5146-bc3e-0107cc2f9fea-attr-1-type" class="er entityLabel">DEPOSIT</text><rect height="22" width="66.84056091308594" y="24" x="66.84056091308594" class="er attributeBoxOdd"/><text style="dominant-baseline: middle; font-size: 10.2px;" transform="translate(71.84056091308594,35)" y="0" x="0" id="text-entity-transactiontype-bbfbd378-4c76-5146-bc3e-0107cc2f9fea-attr-1-name" class="er entityLabel">DEPOSIT</text><rect height="22" width="66.84056091308594" y="46" x="0" class="er attributeBoxEven"/><text style="dominant-baseline: middle; font-size: 10.2px;" transform="translate(5,57)" y="0" x="0" id="text-entity-transactiontype-bbfbd378-4c76-5146-bc3e-0107cc2f9fea-attr-2-type" class="er entityLabel">EXPENSE</text><rect height="22" width="66.84056091308594" y="46" x="66.84056091308594" class="er attributeBoxEven"/><text style="dominant-baseline: middle; font-size: 10.2px;" transform="translate(71.84056091308594,57)" y="0" x="0" id="text-entity-transactiontype-bbfbd378-4c76-5146-bc3e-0107cc2f9fea-attr-2-name" class="er entityLabel">EXPENSE</text><rect height="22" width="66.84056091308594" y="68" x="0" class="er attributeBoxOdd"/><text style="dominant-baseline: middle; font-size: 10.2px;" transform="translate(5,79)" y="0" x="0" id="text-entity-transactiontype-bbfbd378-4c76-5146-bc3e-0107cc2f9fea-attr-3-type" class="er entityLabel">INVESTMENT</text><rect height="22" width="66.84056091308594" y="68" x="66.84056091308594" class="er attributeBoxOdd"/><text style="dominant-baseline: middle; font-size: 10.2px;" transform="translate(71.84056091308594,79)" y="0" x="0" id="text-entity-transactiontype-bbfbd378-4c76-5146-bc3e-0107cc2f9fea-attr-3-name" class="er entityLabel">INVESTMENT</text></g><g transform="translate(253.68112182617188,31 )" id="entity-transactioncategory-97ddd09d-80d7-5126-aab8-97f49b9af2e8"><rect height="222" width="180.9375" y="0" x="0" class="er entityBox"/><text style="dominant-baseline: middle; text-anchor: middle; font-size: 12px;" transform="translate(90.46875,12)" y="0" x="0" id="text-entity-transactioncategory-97ddd09d-80d7-5126-aab8-97f49b9af2e8" class="er entityLabel">transactioncategory</text><rect height="22" width="90.46875" y="24" x="0" class="er attributeBoxOdd"/><text style="dominant-baseline: middle; font-size: 10.2px;" transform="translate(5,35)" y="0" x="0" id="text-entity-transactioncategory-97ddd09d-80d7-5126-aab8-97f49b9af2e8-attr-1-type" class="er entityLabel">HOUSING</text><rect height="22" width="90.46875" y="24" x="90.46875" class="er attributeBoxOdd"/><text style="dominant-baseline: middle; font-size: 10.2px;" transform="translate(95.46875,35)" y="0" x="0" id="text-entity-transactioncategory-97ddd09d-80d7-5126-aab8-97f49b9af2e8-attr-1-name" class="er entityLabel">HOUSING</text><rect height="22" width="90.46875" y="46" x="0" class="er attributeBoxEven"/><text style="dominant-baseline: middle; font-size: 10.2px;" transform="translate(5,57)" y="0" x="0" id="text-entity-transactioncategory-97ddd09d-80d7-5126-aab8-97f49b9af2e8-attr-2-type" class="er entityLabel">TRANSPORTATION</text><rect height="22" width="90.46875" y="46" x="90.46875" class="er attributeBoxEven"/><text style="dominant-baseline: middle; font-size: 10.2px;" transform="translate(95.46875,57)" y="0" x="0" id="text-entity-transactioncategory-97ddd09d-80d7-5126-aab8-97f49b9af2e8-attr-2-name" class="er entityLabel">TRANSPORTATION</text><rect height="22" width="90.46875" y="68" x="0" class="er attributeBoxOdd"/><text style="dominant-baseline: middle; font-size: 10.2px;" transform="translate(5,79)" y="0" x="0" id="text-entity-transactioncategory-97ddd09d-80d7-5126-aab8-97f49b9af2e8-attr-3-type" class="er entityLabel">FOOD</text><rect height="22" width="90.46875" y="68" x="90.46875" class="er attributeBoxOdd"/><text style="dominant-baseline: middle; font-size: 10.2px;" transform="translate(95.46875,79)" y="0" x="0" id="text-entity-transactioncategory-97ddd09d-80d7-5126-aab8-97f49b9af2e8-attr-3-name" class="er entityLabel">FOOD</text><rect height="22" width="90.46875" y="90" x="0" class="er attributeBoxEven"/><text style="dominant-baseline: middle; font-size: 10.2px;" transform="translate(5,101)" y="0" x="0" id="text-entity-transactioncategory-97ddd09d-80d7-5126-aab8-97f49b9af2e8-attr-4-type" class="er entityLabel">ENTRATAIMENT</text><rect height="22" width="90.46875" y="90" x="90.46875" class="er attributeBoxEven"/><text style="dominant-baseline: middle; font-size: 10.2px;" transform="translate(95.46875,101)" y="0" x="0" id="text-entity-transactioncategory-97ddd09d-80d7-5126-aab8-97f49b9af2e8-attr-4-name" class="er entityLabel">ENTRATAIMENT</text><rect height="22" width="90.46875" y="112" x="0" class="er attributeBoxOdd"/><text style="dominant-baseline: middle; font-size: 10.2px;" transform="translate(5,123)" y="0" x="0" id="text-entity-transactioncategory-97ddd09d-80d7-5126-aab8-97f49b9af2e8-attr-5-type" class="er entityLabel">HEALTH</text><rect height="22" width="90.46875" y="112" x="90.46875" class="er attributeBoxOdd"/><text style="dominant-baseline: middle; font-size: 10.2px;" transform="translate(95.46875,123)" y="0" x="0" id="text-entity-transactioncategory-97ddd09d-80d7-5126-aab8-97f49b9af2e8-attr-5-name" class="er entityLabel">HEALTH</text><rect height="22" width="90.46875" y="134" x="0" class="er attributeBoxEven"/><text style="dominant-baseline: middle; font-size: 10.2px;" transform="translate(5,145)" y="0" x="0" id="text-entity-transactioncategory-97ddd09d-80d7-5126-aab8-97f49b9af2e8-attr-6-type" class="er entityLabel">UTILITY</text><rect height="22" width="90.46875" y="134" x="90.46875" class="er attributeBoxEven"/><text style="dominant-baseline: middle; font-size: 10.2px;" transform="translate(95.46875,145)" y="0" x="0" id="text-entity-transactioncategory-97ddd09d-80d7-5126-aab8-97f49b9af2e8-attr-6-name" class="er entityLabel">UTILITY</text><rect height="22" width="90.46875" y="156" x="0" class="er attributeBoxOdd"/><text style="dominant-baseline: middle; font-size: 10.2px;" transform="translate(5,167)" y="0" x="0" id="text-entity-transactioncategory-97ddd09d-80d7-5126-aab8-97f49b9af2e8-attr-7-type" class="er entityLabel">SALARY</text><rect height="22" width="90.46875" y="156" x="90.46875" class="er attributeBoxOdd"/><text style="dominant-baseline: middle; font-size: 10.2px;" transform="translate(95.46875,167)" y="0" x="0" id="text-entity-transactioncategory-97ddd09d-80d7-5126-aab8-97f49b9af2e8-attr-7-name" class="er entityLabel">SALARY</text><rect height="22" width="90.46875" y="178" x="0" class="er attributeBoxEven"/><text style="dominant-baseline: middle; font-size: 10.2px;" transform="translate(5,189)" y="0" x="0" id="text-entity-transactioncategory-97ddd09d-80d7-5126-aab8-97f49b9af2e8-attr-8-type" class="er entityLabel">EDUCATION</text><rect height="22" width="90.46875" y="178" x="90.46875" class="er attributeBoxEven"/><text style="dominant-baseline: middle; font-size: 10.2px;" transform="translate(95.46875,189)" y="0" x="0" id="text-entity-transactioncategory-97ddd09d-80d7-5126-aab8-97f49b9af2e8-attr-8-name" class="er entityLabel">EDUCATION</text><rect height="22" width="90.46875" y="200" x="0" class="er attributeBoxOdd"/><text style="dominant-baseline: middle; font-size: 10.2px;" transform="translate(5,211)" y="0" x="0" id="text-entity-transactioncategory-97ddd09d-80d7-5126-aab8-97f49b9af2e8-attr-9-type" class="er entityLabel">OTHER</text><rect height="22" width="90.46875" y="200" x="90.46875" class="er attributeBoxOdd"/><text style="dominant-baseline: middle; font-size: 10.2px;" transform="translate(95.46875,211)" y="0" x="0" id="text-entity-transactioncategory-97ddd09d-80d7-5126-aab8-97f49b9af2e8-attr-9-name" class="er entityLabel">OTHER</text></g><g transform="translate(534.6186218261719,53 )" id="entity-transactionpaymentmethod-a0669290-d72d-5bee-9c94-07fcf27e5f4c"><rect height="178" width="178.55078125" y="0" x="0" class="er entityBox"/><text style="dominant-baseline: middle; text-anchor: middle; font-size: 12px;" transform="translate(89.275390625,12)" y="0" x="0" id="text-entity-transactionpaymentmethod-a0669290-d72d-5bee-9c94-07fcf27e5f4c" class="er entityLabel">transactionpaymentmethod</text><rect height="22" width="89.275390625" y="24" x="0" class="er attributeBoxOdd"/><text style="dominant-baseline: middle; font-size: 10.2px;" transform="translate(5,35)" y="0" x="0" id="text-entity-transactionpaymentmethod-a0669290-d72d-5bee-9c94-07fcf27e5f4c-attr-1-type" class="er entityLabel">CREDIT_CARD</text><rect height="22" width="89.275390625" y="24" x="89.275390625" class="er attributeBoxOdd"/><text style="dominant-baseline: middle; font-size: 10.2px;" transform="translate(94.275390625,35)" y="0" x="0" id="text-entity-transactionpaymentmethod-a0669290-d72d-5bee-9c94-07fcf27e5f4c-attr-1-name" class="er entityLabel">CREDIT_CARD</text><rect height="22" width="89.275390625" y="46" x="0" class="er attributeBoxEven"/><text style="dominant-baseline: middle; font-size: 10.2px;" transform="translate(5,57)" y="0" x="0" id="text-entity-transactionpaymentmethod-a0669290-d72d-5bee-9c94-07fcf27e5f4c-attr-2-type" class="er entityLabel">DEBIT_CARD</text><rect height="22" width="89.275390625" y="46" x="89.275390625" class="er attributeBoxEven"/><text style="dominant-baseline: middle; font-size: 10.2px;" transform="translate(94.275390625,57)" y="0" x="0" id="text-entity-transactionpaymentmethod-a0669290-d72d-5bee-9c94-07fcf27e5f4c-attr-2-name" class="er entityLabel">DEBIT_CARD</text><rect height="22" width="89.275390625" y="68" x="0" class="er attributeBoxOdd"/><text style="dominant-baseline: middle; font-size: 10.2px;" transform="translate(5,79)" y="0" x="0" id="text-entity-transactionpaymentmethod-a0669290-d72d-5bee-9c94-07fcf27e5f4c-attr-3-type" class="er entityLabel">BANK_TRANSFER</text><rect height="22" width="89.275390625" y="68" x="89.275390625" class="er attributeBoxOdd"/><text style="dominant-baseline: middle; font-size: 10.2px;" transform="translate(94.275390625,79)" y="0" x="0" id="text-entity-transactionpaymentmethod-a0669290-d72d-5bee-9c94-07fcf27e5f4c-attr-3-name" class="er entityLabel">BANK_TRANSFER</text><rect height="22" width="89.275390625" y="90" x="0" class="er attributeBoxEven"/><text style="dominant-baseline: middle; font-size: 10.2px;" transform="translate(5,101)" y="0" x="0" id="text-entity-transactionpaymentmethod-a0669290-d72d-5bee-9c94-07fcf27e5f4c-attr-4-type" class="er entityLabel">BANK_SLIP</text><rect height="22" width="89.275390625" y="90" x="89.275390625" class="er attributeBoxEven"/><text style="dominant-baseline: middle; font-size: 10.2px;" transform="translate(94.275390625,101)" y="0" x="0" id="text-entity-transactionpaymentmethod-a0669290-d72d-5bee-9c94-07fcf27e5f4c-attr-4-name" class="er entityLabel">BANK_SLIP</text><rect height="22" width="89.275390625" y="112" x="0" class="er attributeBoxOdd"/><text style="dominant-baseline: middle; font-size: 10.2px;" transform="translate(5,123)" y="0" x="0" id="text-entity-transactionpaymentmethod-a0669290-d72d-5bee-9c94-07fcf27e5f4c-attr-5-type" class="er entityLabel">CASH</text><rect height="22" width="89.275390625" y="112" x="89.275390625" class="er attributeBoxOdd"/><text style="dominant-baseline: middle; font-size: 10.2px;" transform="translate(94.275390625,123)" y="0" x="0" id="text-entity-transactionpaymentmethod-a0669290-d72d-5bee-9c94-07fcf27e5f4c-attr-5-name" class="er entityLabel">CASH</text><rect height="22" width="89.275390625" y="134" x="0" class="er attributeBoxEven"/><text style="dominant-baseline: middle; font-size: 10.2px;" transform="translate(5,145)" y="0" x="0" id="text-entity-transactionpaymentmethod-a0669290-d72d-5bee-9c94-07fcf27e5f4c-attr-6-type" class="er entityLabel">PIX</text><rect height="22" width="89.275390625" y="134" x="89.275390625" class="er attributeBoxEven"/><text style="dominant-baseline: middle; font-size: 10.2px;" transform="translate(94.275390625,145)" y="0" x="0" id="text-entity-transactionpaymentmethod-a0669290-d72d-5bee-9c94-07fcf27e5f4c-attr-6-name" class="er entityLabel">PIX</text><rect height="22" width="89.275390625" y="156" x="0" class="er attributeBoxOdd"/><text style="dominant-baseline: middle; font-size: 10.2px;" transform="translate(5,167)" y="0" x="0" id="text-entity-transactionpaymentmethod-a0669290-d72d-5bee-9c94-07fcf27e5f4c-attr-7-type" class="er entityLabel">OTHER</text><rect height="22" width="89.275390625" y="156" x="89.275390625" class="er attributeBoxOdd"/><text style="dominant-baseline: middle; font-size: 10.2px;" transform="translate(94.275390625,167)" y="0" x="0" id="text-entity-transactionpaymentmethod-a0669290-d72d-5bee-9c94-07fcf27e5f4c-attr-7-name" class="er entityLabel">OTHER</text></g><g transform="translate(813.1694030761719,20 )" id="entity-transaction-292cec1f-1325-5076-b94d-dfe355ab657a"><rect height="244" width="245.22726440429688" y="0" x="0" class="er entityBox"/><text style="dominant-baseline: middle; text-anchor: middle; font-size: 12px;" transform="translate(122.61363220214844,12)" y="0" x="0" id="text-entity-transaction-292cec1f-1325-5076-b94d-dfe355ab657a" class="er entityLabel">transaction</text><rect height="22" width="136.37168884277344" y="24" x="0" class="er attributeBoxOdd"/><text style="dominant-baseline: middle; font-size: 10.2px;" transform="translate(5,35)" y="0" x="0" id="text-entity-transaction-292cec1f-1325-5076-b94d-dfe355ab657a-attr-1-type" class="er entityLabel">String</text><rect height="22" width="84.83995056152344" y="24" x="136.37168884277344" class="er attributeBoxOdd"/><text style="dominant-baseline: middle; font-size: 10.2px;" transform="translate(141.37168884277344,35)" y="0" x="0" id="text-entity-transaction-292cec1f-1325-5076-b94d-dfe355ab657a-attr-1-name" class="er entityLabel">id</text><rect height="22" width="24.015625" y="24" x="221.21163940429688" class="er attributeBoxOdd"/><text style="dominant-baseline: middle; font-size: 10.2px;" transform="translate(226.21163940429688,35)" y="0" x="0" id="text-entity-transaction-292cec1f-1325-5076-b94d-dfe355ab657a-attr-1-comment" class="er entityLabel">🗝️</text><rect height="22" width="136.37168884277344" y="46" x="0" class="er attributeBoxEven"/><text style="dominant-baseline: middle; font-size: 10.2px;" transform="translate(5,57)" y="0" x="0" id="text-entity-transaction-292cec1f-1325-5076-b94d-dfe355ab657a-attr-2-type" class="er entityLabel">String</text><rect height="22" width="84.83995056152344" y="46" x="136.37168884277344" class="er attributeBoxEven"/><text style="dominant-baseline: middle; font-size: 10.2px;" transform="translate(141.37168884277344,57)" y="0" x="0" id="text-entity-transaction-292cec1f-1325-5076-b94d-dfe355ab657a-attr-2-name" class="er entityLabel">name</text><rect height="22" width="24.015625" y="46" x="221.21163940429688" class="er attributeBoxEven"/><text style="dominant-baseline: middle; font-size: 10.2px;" transform="translate(226.21163940429688,57)" y="0" x="0" id="text-entity-transaction-292cec1f-1325-5076-b94d-dfe355ab657a-attr-2-comment" class="er entityLabel"/><rect height="22" width="136.37168884277344" y="68" x="0" class="er attributeBoxOdd"/><text style="dominant-baseline: middle; font-size: 10.2px;" transform="translate(5,79)" y="0" x="0" id="text-entity-transaction-292cec1f-1325-5076-b94d-dfe355ab657a-attr-3-type" class="er entityLabel">TransactionType</text><rect height="22" width="84.83995056152344" y="68" x="136.37168884277344" class="er attributeBoxOdd"/><text style="dominant-baseline: middle; font-size: 10.2px;" transform="translate(141.37168884277344,79)" y="0" x="0" id="text-entity-transaction-292cec1f-1325-5076-b94d-dfe355ab657a-attr-3-name" class="er entityLabel">type</text><rect height="22" width="24.015625" y="68" x="221.21163940429688" class="er attributeBoxOdd"/><text style="dominant-baseline: middle; font-size: 10.2px;" transform="translate(226.21163940429688,79)" y="0" x="0" id="text-entity-transaction-292cec1f-1325-5076-b94d-dfe355ab657a-attr-3-comment" class="er entityLabel"/><rect height="22" width="136.37168884277344" y="90" x="0" class="er attributeBoxEven"/><text style="dominant-baseline: middle; font-size: 10.2px;" transform="translate(5,101)" y="0" x="0" id="text-entity-transaction-292cec1f-1325-5076-b94d-dfe355ab657a-attr-4-type" class="er entityLabel">Decimal</text><rect height="22" width="84.83995056152344" y="90" x="136.37168884277344" class="er attributeBoxEven"/><text style="dominant-baseline: middle; font-size: 10.2px;" transform="translate(141.37168884277344,101)" y="0" x="0" id="text-entity-transaction-292cec1f-1325-5076-b94d-dfe355ab657a-attr-4-name" class="er entityLabel">amount</text><rect height="22" width="24.015625" y="90" x="221.21163940429688" class="er attributeBoxEven"/><text style="dominant-baseline: middle; font-size: 10.2px;" transform="translate(226.21163940429688,101)" y="0" x="0" id="text-entity-transaction-292cec1f-1325-5076-b94d-dfe355ab657a-attr-4-comment" class="er entityLabel"/><rect height="22" width="136.37168884277344" y="112" x="0" class="er attributeBoxOdd"/><text style="dominant-baseline: middle; font-size: 10.2px;" transform="translate(5,123)" y="0" x="0" id="text-entity-transaction-292cec1f-1325-5076-b94d-dfe355ab657a-attr-5-type" class="er entityLabel">TransactionCategory</text><rect height="22" width="84.83995056152344" y="112" x="136.37168884277344" class="er attributeBoxOdd"/><text style="dominant-baseline: middle; font-size: 10.2px;" transform="translate(141.37168884277344,123)" y="0" x="0" id="text-entity-transaction-292cec1f-1325-5076-b94d-dfe355ab657a-attr-5-name" class="er entityLabel">category</text><rect height="22" width="24.015625" y="112" x="221.21163940429688" class="er attributeBoxOdd"/><text style="dominant-baseline: middle; font-size: 10.2px;" transform="translate(226.21163940429688,123)" y="0" x="0" id="text-entity-transaction-292cec1f-1325-5076-b94d-dfe355ab657a-attr-5-comment" class="er entityLabel"/><rect height="22" width="136.37168884277344" y="134" x="0" class="er attributeBoxEven"/><text style="dominant-baseline: middle; font-size: 10.2px;" transform="translate(5,145)" y="0" x="0" id="text-entity-transaction-292cec1f-1325-5076-b94d-dfe355ab657a-attr-6-type" class="er entityLabel">TransactionPaymentMethod</text><rect height="22" width="84.83995056152344" y="134" x="136.37168884277344" class="er attributeBoxEven"/><text style="dominant-baseline: middle; font-size: 10.2px;" transform="translate(141.37168884277344,145)" y="0" x="0" id="text-entity-transaction-292cec1f-1325-5076-b94d-dfe355ab657a-attr-6-name" class="er entityLabel">paymentmethod</text><rect height="22" width="24.015625" y="134" x="221.21163940429688" class="er attributeBoxEven"/><text style="dominant-baseline: middle; font-size: 10.2px;" transform="translate(226.21163940429688,145)" y="0" x="0" id="text-entity-transaction-292cec1f-1325-5076-b94d-dfe355ab657a-attr-6-comment" class="er entityLabel"/><rect height="22" width="136.37168884277344" y="156" x="0" class="er attributeBoxOdd"/><text style="dominant-baseline: middle; font-size: 10.2px;" transform="translate(5,167)" y="0" x="0" id="text-entity-transaction-292cec1f-1325-5076-b94d-dfe355ab657a-attr-7-type" class="er entityLabel">DateTime</text><rect height="22" width="84.83995056152344" y="156" x="136.37168884277344" class="er attributeBoxOdd"/><text style="dominant-baseline: middle; font-size: 10.2px;" transform="translate(141.37168884277344,167)" y="0" x="0" id="text-entity-transaction-292cec1f-1325-5076-b94d-dfe355ab657a-attr-7-name" class="er entityLabel">date</text><rect height="22" width="24.015625" y="156" x="221.21163940429688" class="er attributeBoxOdd"/><text style="dominant-baseline: middle; font-size: 10.2px;" transform="translate(226.21163940429688,167)" y="0" x="0" id="text-entity-transaction-292cec1f-1325-5076-b94d-dfe355ab657a-attr-7-comment" class="er entityLabel"/><rect height="22" width="136.37168884277344" y="178" x="0" class="er attributeBoxEven"/><text style="dominant-baseline: middle; font-size: 10.2px;" transform="translate(5,189)" y="0" x="0" id="text-entity-transaction-292cec1f-1325-5076-b94d-dfe355ab657a-attr-8-type" class="er entityLabel">DateTime</text><rect height="22" width="84.83995056152344" y="178" x="136.37168884277344" class="er attributeBoxEven"/><text style="dominant-baseline: middle; font-size: 10.2px;" transform="translate(141.37168884277344,189)" y="0" x="0" id="text-entity-transaction-292cec1f-1325-5076-b94d-dfe355ab657a-attr-8-name" class="er entityLabel">created_at</text><rect height="22" width="24.015625" y="178" x="221.21163940429688" class="er attributeBoxEven"/><text style="dominant-baseline: middle; font-size: 10.2px;" transform="translate(226.21163940429688,189)" y="0" x="0" id="text-entity-transaction-292cec1f-1325-5076-b94d-dfe355ab657a-attr-8-comment" class="er entityLabel"/><rect height="22" width="136.37168884277344" y="200" x="0" class="er attributeBoxOdd"/><text style="dominant-baseline: middle; font-size: 10.2px;" transform="translate(5,211)" y="0" x="0" id="text-entity-transaction-292cec1f-1325-5076-b94d-dfe355ab657a-attr-9-type" class="er entityLabel">DateTime</text><rect height="22" width="84.83995056152344" y="200" x="136.37168884277344" class="er attributeBoxOdd"/><text style="dominant-baseline: middle; font-size: 10.2px;" transform="translate(141.37168884277344,211)" y="0" x="0" id="text-entity-transaction-292cec1f-1325-5076-b94d-dfe355ab657a-attr-9-name" class="er entityLabel">updated_at</text><rect height="22" width="24.015625" y="200" x="221.21163940429688" class="er attributeBoxOdd"/><text style="dominant-baseline: middle; font-size: 10.2px;" transform="translate(226.21163940429688,211)" y="0" x="0" id="text-entity-transaction-292cec1f-1325-5076-b94d-dfe355ab657a-attr-9-comment" class="er entityLabel"/><rect height="22" width="136.37168884277344" y="222" x="0" class="er attributeBoxEven"/><text style="dominant-baseline: middle; font-size: 10.2px;" transform="translate(5,233)" y="0" x="0" id="text-entity-transaction-292cec1f-1325-5076-b94d-dfe355ab657a-attr-10-type" class="er entityLabel">String</text><rect height="22" width="84.83995056152344" y="222" x="136.37168884277344" class="er attributeBoxEven"/><text style="dominant-baseline: middle; font-size: 10.2px;" transform="translate(141.37168884277344,233)" y="0" x="0" id="text-entity-transaction-292cec1f-1325-5076-b94d-dfe355ab657a-attr-10-name" class="er entityLabel">userId</text><rect height="22" width="24.015625" y="222" x="221.21163940429688" class="er attributeBoxEven"/><text style="dominant-baseline: middle; font-size: 10.2px;" transform="translate(226.21163940429688,233)" y="0" x="0" id="text-entity-transaction-292cec1f-1325-5076-b94d-dfe355ab657a-attr-10-comment" class="er entityLabel"/></g><g transform="translate(517.5091094970703,364 )" id="entity-TransactionType-06d6b4fc-6b94-511f-af9e-6052a9cc6367"><rect height="75" width="117.640625" y="0" x="0" class="er entityBox"/><text style="dominant-baseline: middle; text-anchor: middle; font-size: 12px;" transform="translate(58.8203125,37.5)" y="0" x="0" id="text-entity-TransactionType-06d6b4fc-6b94-511f-af9e-6052a9cc6367" class="er entityLabel">TransactionType</text></g><g transform="translate(735.1497344970703,364 )" id="entity-TransactionCategory-e0a1a66b-1e5e-5c2e-92c0-d01d5f6dd3f3"><rect height="75" width="141.365234375" y="0" x="0" class="er entityBox"/><text style="dominant-baseline: middle; text-anchor: middle; font-size: 12px;" transform="translate(70.6826171875,37.5)" y="0" x="0" id="text-entity-TransactionCategory-e0a1a66b-1e5e-5c2e-92c0-d01d5f6dd3f3" class="er entityLabel">TransactionCategory</text></g><g transform="translate(976.5149688720703,364 )" id="entity-TransactionPaymentMethod-cb91d7e3-e9c9-5ec0-b6c7-20150053e99a"><rect height="75" width="178.4375" y="0" x="0" class="er entityBox"/><text style="dominant-baseline: middle; text-anchor: middle; font-size: 12px;" transform="translate(89.21875,37.5)" y="0" x="0" id="text-entity-TransactionPaymentMethod-cb91d7e3-e9c9-5ec0-b6c7-20150053e99a" class="er entityLabel">TransactionPaymentMethod</text></g><rect height="14" width="58.38671875" y="259.63128662109375" x="649.7001342773438" class="er relationshipLabelBox"/><text style="text-anchor: middle; dominant-baseline: middle; font-size: 12px;" y="266.63128662109375" x="678.8934936523438" id="rel1" class="er relationshipLabel">enum:type</text><rect height="14" width="81.701171875" y="303.02801513671875" x="772.8927001953125" class="er relationshipLabelBox"/><text style="text-anchor: middle; dominant-baseline: middle; font-size: 12px;" y="310.02801513671875" x="813.7432861328125" id="rel2" class="er relationshipLabel">enum:category</text><rect height="14" width="122.013671875" y="303.0281066894531" x="996.815673828125" class="er relationshipLabelBox"/><text style="text-anchor: middle; dominant-baseline: middle; font-size: 12px;" y="310.0281066894531" x="1057.822509765625" id="rel3" class="er relationshipLabel">enum:paymentmethod</text></svg>